<svg width="137" height="48" viewBox="0 0 137 48" fill="none" xmlns="http://www.w3.org/2000/svg">
<g clip-path="url(#clip0_1_281)">
<path fill-rule="evenodd" clip-rule="evenodd" d="M38.955 13.0182C38.959 13.0282 38.965 13.0382 38.967 13.0482C38.9812 13.1017 38.9886 13.1568 38.989 13.2122V21.7982C38.9893 21.908 38.9607 22.016 38.9061 22.1112C38.8515 22.2065 38.7729 22.2858 38.678 22.3412L31.54 26.4912V34.7142C31.5402 34.8241 31.5114 34.9321 31.4566 35.0274C31.4019 35.1227 31.323 35.202 31.228 35.2572L16.329 43.9172C16.2947 43.9357 16.2585 43.9505 16.221 43.9612C16.207 43.9672 16.194 43.9752 16.179 43.9792C16.0749 44.0072 15.9651 44.0072 15.861 43.9792C15.8514 43.9767 15.842 43.9734 15.833 43.9692L15.813 43.9592C15.778 43.9462 15.743 43.9352 15.71 43.9162L0.811001 35.2572C0.716218 35.2018 0.637622 35.1224 0.583052 35.0272C0.528483 34.9319 0.499847 34.824 0.500001 34.7142V8.95618C0.500385 8.90119 0.507436 8.84646 0.521001 8.79318C0.527001 8.77418 0.537001 8.75818 0.543001 8.74018L0.563001 8.68718C0.568576 8.67204 0.575261 8.65733 0.583001 8.64318C0.595001 8.62318 0.612001 8.60618 0.626001 8.58718C0.644001 8.56218 0.659001 8.53718 0.681001 8.51418C0.699001 8.49618 0.721001 8.48418 0.741001 8.46718C0.764001 8.44918 0.785001 8.42918 0.810001 8.41418L8.26 4.08418C8.35412 4.02937 8.46109 4.00049 8.57 4.00049C8.67892 4.00049 8.78588 4.02937 8.88 4.08418L16.33 8.41418C16.355 8.42918 16.376 8.44918 16.399 8.46718L16.42 8.48318C16.434 8.49318 16.448 8.50318 16.46 8.51418C16.4749 8.52988 16.4883 8.54696 16.5 8.56518L16.515 8.58718C16.528 8.60718 16.545 8.62218 16.557 8.64318C16.574 8.67318 16.585 8.70718 16.597 8.74018L16.607 8.76218L16.619 8.79218C16.633 8.84571 16.6401 8.90084 16.64 8.95618V25.0442L22.848 21.4362V13.2122C22.8483 13.1571 22.8557 13.1023 22.87 13.0492C22.875 13.0302 22.885 13.0142 22.891 12.9962L22.898 12.9762C22.9104 12.9256 22.9368 12.8796 22.974 12.8432C22.992 12.8182 23.008 12.7932 23.029 12.7702C23.039 12.7602 23.049 12.7532 23.059 12.7452C23.069 12.7382 23.08 12.7312 23.089 12.7232L23.125 12.6932C23.1354 12.6847 23.1464 12.677 23.158 12.6702L30.608 8.34018C30.7021 8.28537 30.8091 8.25649 30.918 8.25649C31.0269 8.25649 31.1339 8.28537 31.228 8.34018L38.678 12.6702C38.704 12.6852 38.724 12.7062 38.747 12.7232L38.769 12.7392C38.782 12.7492 38.796 12.7592 38.807 12.7702C38.822 12.7861 38.8354 12.8035 38.847 12.8222L38.863 12.8432L38.879 12.8632C38.889 12.8752 38.898 12.8862 38.905 12.8992C38.9185 12.9249 38.9299 12.9516 38.939 12.9792L38.945 12.9962L38.955 13.0182ZM9.822 30.4532L16.018 33.9932L29.67 26.1262L23.469 22.5212L9.822 30.4532ZM30.298 25.0442V17.9042L24.09 14.2972V21.4372L30.297 25.0442H30.298ZM37.124 13.2142L30.918 9.60618L24.713 13.2132L30.918 16.8192L37.124 13.2132V13.2142ZM9.191 13.6482V29.3742L15.399 25.7652V10.0402L9.19 13.6482H9.191ZM14.775 8.95618L8.57 5.35018L2.364 8.95618L8.57 12.5632L14.775 8.95618ZM7.949 13.6502L1.741 10.0402V34.3502L15.4 42.2902V35.0802L8.265 31.0042H8.263L8.259 31.0002C8.234 30.9852 8.214 30.9652 8.192 30.9472C8.1704 30.9349 8.15056 30.9198 8.133 30.9022L8.131 30.9002C8.118 30.8872 8.107 30.8712 8.096 30.8562C8.09084 30.8487 8.08551 30.8414 8.08 30.8342L8.05 30.7962C8.04414 30.7889 8.03879 30.7812 8.034 30.7732L8.033 30.7712C8.02331 30.7541 8.0156 30.736 8.01 30.7172L8 30.6932L7.985 30.6602C7.97926 30.6479 7.97457 30.6352 7.971 30.6222C7.96559 30.5999 7.96224 30.5771 7.961 30.5542L7.958 30.5292C7.9569 30.5205 7.95557 30.5118 7.954 30.5032C7.952 30.4892 7.949 30.4742 7.949 30.4592V13.6502V13.6512V13.6502ZM16.64 35.0802V42.2902L30.297 34.3532V27.2102L16.64 35.0802V35.0812V35.0802ZM31.54 25.0432L37.748 21.4352V14.2952L31.54 17.9052V25.0452V25.0432Z" fill="#334155"/>
<path d="M133.239 13.2144H136.5V34.3604H133.239V13.2144ZM48.8929 13.2144H52.3339V31.2504H58.7969V34.3604H48.8929V13.2164V13.2144Z" fill="#334155"/>
<path fill-rule="evenodd" clip-rule="evenodd" d="M69.076 20.5254C69.884 20.9284 70.506 21.4814 70.946 22.1854V20.2834H74.207V34.3604H70.946V32.4574C70.507 33.1624 69.884 33.7164 69.076 34.1174C68.268 34.5214 67.4561 34.7224 66.6361 34.7224C65.5791 34.7224 64.6121 34.5264 63.734 34.1324C62.8775 33.7556 62.108 33.2057 61.474 32.5174C60.8439 31.8297 60.3471 31.0308 60.009 30.1614C59.6561 29.2565 59.4783 28.2927 59.485 27.3214C59.485 26.3354 59.659 25.3934 60.009 24.4974C60.3452 23.6224 60.8424 22.8181 61.475 22.1264C62.1091 21.4379 62.8785 20.8878 63.735 20.5104C64.612 20.1174 65.579 19.9204 66.637 19.9204C67.455 19.9204 68.267 20.1224 69.076 20.5254ZM69.809 30.4634C70.176 30.0474 70.4601 29.5654 70.6471 29.0434C70.8471 28.4914 70.949 27.9094 70.947 27.3224C70.947 26.7174 70.8471 26.1424 70.6471 25.6004C70.4603 25.0782 70.1759 24.5963 69.809 24.1804C69.4446 23.7737 69.0017 23.4448 68.5071 23.2134C67.978 22.9676 67.4004 22.8439 66.817 22.8514C66.1971 22.8514 65.639 22.9714 65.14 23.2134C64.6518 23.4478 64.2147 23.7764 63.854 24.1804C63.494 24.5834 63.22 25.0564 63.031 25.6004C62.8397 26.1542 62.7437 26.7365 62.7471 27.3224C62.7471 27.9264 62.841 28.5004 63.031 29.0424C63.2086 29.5656 63.4884 30.0483 63.854 30.4624C64.214 30.8664 64.642 31.1884 65.14 31.4304C65.664 31.6774 66.2371 31.8004 66.8161 31.7924C67.4341 31.7924 67.9981 31.6724 68.5071 31.4304C69.0021 31.1994 69.445 30.8704 69.809 30.4634ZM97.458 22.1864C97.0181 21.4814 96.395 20.9284 95.588 20.5254C94.78 20.1224 93.9681 19.9214 93.1481 19.9214C92.0911 19.9214 91.1241 20.1174 90.246 20.5104C89.3895 20.8878 88.6201 21.4379 87.986 22.1264C87.3538 22.8179 86.8569 23.6218 86.5211 24.4964C86.1711 25.3974 85.993 26.3564 85.997 27.3224C85.997 28.3294 86.1711 29.2754 86.5211 30.1624C86.8591 31.0314 87.357 31.8304 87.987 32.5174C88.6209 33.2061 89.3904 33.7563 90.247 34.1334C91.1241 34.5264 92.0911 34.7234 93.1491 34.7234C93.9671 34.7234 94.779 34.5214 95.588 34.1184C96.396 33.7164 97.0181 33.1624 97.458 32.4584V34.3604H100.719V20.2834H97.458V22.1864ZM97.158 29.0434C96.9714 29.5656 96.687 30.0476 96.32 30.4634C95.9561 30.8703 95.5135 31.1992 95.019 31.4304C94.49 31.6763 93.9124 31.8 93.3291 31.7924C92.7101 31.7924 92.1511 31.6724 91.6521 31.4304C91.1589 31.1936 90.7181 30.8604 90.3559 30.4504C89.9937 30.0404 89.7173 29.562 89.543 29.0434C89.3515 28.49 89.2551 27.9081 89.2581 27.3224C89.2581 26.7174 89.353 26.1424 89.543 25.6004C89.7201 25.077 89.9999 24.5942 90.366 24.1804C90.726 23.7764 91.164 23.4474 91.6521 23.2134C92.1758 22.9664 92.7491 22.8426 93.3281 22.8514C93.9461 22.8514 94.51 22.9714 95.018 23.2134C95.528 23.4554 95.961 23.7784 96.32 24.1804C96.68 24.5834 96.959 25.0564 97.159 25.6004C97.357 26.1434 97.458 26.7174 97.458 27.3224C97.458 27.9264 97.358 28.5004 97.158 29.0424V29.0434Z" fill="#334155"/>
<path d="M76.781 34.3602H80.043V23.5232H85.639V20.2832H76.78V34.3602H76.781ZM109.697 31.0632L113.796 20.2832H117.1L111.746 34.3602H107.647L102.294 20.2832H105.597L109.697 31.0632Z" fill="#334155"/>
<path fill-rule="evenodd" clip-rule="evenodd" d="M124.214 19.9204C120.22 19.9204 117.058 23.2354 117.058 27.3204C117.058 31.8404 120.118 34.7224 124.632 34.7224C127.158 34.7224 128.771 33.7474 130.741 31.6244L128.538 29.9034C128.536 29.9034 126.874 32.1074 124.393 32.1074C121.509 32.1074 120.294 29.7594 120.294 28.5454H131.115C131.683 23.8954 128.655 19.9214 124.214 19.9214V19.9204ZM120.303 26.0984C120.328 25.8284 120.704 22.5364 124.188 22.5364C127.672 22.5364 128.095 25.8264 128.119 26.0984H120.303Z" fill="#334155"/>
</g>
<defs>
<clipPath id="clip0_1_281">
<rect width="136" height="48" fill="white" transform="translate(0.5)"/>
</clipPath>
</defs>
</svg>
