<svg width="139" height="48" viewBox="0 0 139 48" fill="none" xmlns="http://www.w3.org/2000/svg">
<g clip-path="url(#clip0_1_275)">
<path fill-rule="evenodd" clip-rule="evenodd" d="M30.816 5C34.8 5 38.029 8.256 38.029 12.273C38.0324 13.7657 37.5764 15.2232 36.7228 16.4478C35.8693 17.6724 34.6596 18.6046 33.258 19.118L39.072 29.58H43.052C43.665 29.58 44.162 30.08 44.162 30.698C44.162 31.316 43.665 31.816 43.052 31.816H1.60998C0.997977 31.816 0.500977 31.316 0.500977 30.698C0.500977 30.08 0.997976 29.58 1.61098 29.58H5.59098L15.944 11.018C16.0367 10.851 16.1712 10.7109 16.3342 10.6112C16.4972 10.5116 16.6832 10.4559 16.8741 10.4496C17.0651 10.4433 17.2544 10.4865 17.4236 10.575C17.5929 10.6636 17.7363 10.7945 17.84 10.955L23.788 20.144L25.638 17.335C24.3291 15.9752 23.5995 14.1603 23.603 12.273C23.603 8.256 26.833 5 30.817 5H30.816ZM25.107 22.183L29.895 29.58H36.529L29.072 16.162L25.107 22.183ZM27.247 29.58L16.98 13.72L8.13498 29.58H27.247ZM35.949 12.273C35.9519 13.3951 35.5899 14.4878 34.9174 15.3861C34.2449 16.2845 33.2985 16.9397 32.221 17.253L30.12 13.472C30.0278 13.3054 29.8941 13.1654 29.732 13.0656C29.5698 12.9657 29.3846 12.9095 29.1943 12.9022C29.004 12.895 28.8151 12.937 28.6458 13.0242C28.4765 13.1114 28.3326 13.2409 28.228 13.4L26.826 15.53C26.0835 14.6071 25.6797 13.4575 25.682 12.273C25.682 9.414 27.981 7.097 30.816 7.097C33.651 7.097 35.949 9.414 35.949 12.273Z" fill="#334155"/>
<path d="M10.1199 35.1729C9.50894 35.1729 9.01294 35.6729 9.01294 36.2899C9.01294 36.9069 9.50894 37.4058 10.1199 37.4058H34.5399C35.1519 37.4058 35.6479 36.9059 35.6479 36.2899C35.6479 35.6729 35.1519 35.1729 34.5409 35.1729H10.1199ZM18.6329 40.7629C18.0199 40.7629 17.5229 41.2629 17.5229 41.8819C17.5229 42.4989 18.0199 42.9999 18.6329 42.9999H26.0289C26.6409 42.9999 27.1379 42.4999 27.1379 41.8819C27.1379 41.2639 26.6409 40.7619 26.0279 40.7619H18.6329V40.7629Z" fill="#334155"/>
<path fill-rule="evenodd" clip-rule="evenodd" d="M120.527 21.8712C119.545 20.6212 118.074 19.9482 116.18 19.9482C113.196 19.9482 110.131 22.4762 110.131 26.7342C110.131 30.9922 113.196 33.5202 116.18 33.5202C118.074 33.5202 119.545 32.8602 120.527 31.5972V32.6552C120.527 35.1002 119.055 36.5852 116.385 36.5852C114.791 36.5852 113.278 36.0612 111.957 35.2512L110.921 37.6832C112.297 38.6732 114.436 39.2082 116.385 39.2082C120.745 39.2082 123.388 36.6682 123.388 32.5312V20.2912H120.527V21.8712ZM113.06 26.7342C113.06 24.5092 114.504 22.6542 116.915 22.6542C119.218 22.6542 120.772 24.4272 120.772 26.7342C120.772 29.0422 119.218 30.8142 116.915 30.8142C114.504 30.8142 113.06 28.9472 113.06 26.7342ZM104.841 21.8852C103.942 20.7172 102.593 19.9482 100.74 19.9482C97.09 19.9482 94.214 22.8462 94.214 26.8712C94.214 30.8962 97.089 33.7952 100.74 33.7952C102.594 33.7952 103.942 33.0402 104.841 31.8722V33.4522H107.689V20.2922H104.841V21.8852ZM97.143 26.8712C97.143 24.5642 98.629 22.6542 101.081 22.6542C103.438 22.6542 105.019 24.4672 105.019 26.8712C105.019 29.2752 103.438 31.0892 101.081 31.0892C98.629 31.0892 97.143 29.1792 97.143 26.8712ZM138.5 26.8582C138.487 22.7512 135.98 19.9482 132.328 19.9482C128.486 19.9482 125.829 22.7512 125.829 26.8722C125.829 31.0482 128.595 33.7962 132.505 33.7962C134.481 33.7962 136.279 33.3162 137.873 31.9422L136.456 29.8942C135.38 30.7592 133.99 31.2822 132.682 31.2822C130.829 31.2822 129.181 30.2922 128.799 27.9292H138.446C138.473 27.6002 138.5 27.2292 138.5 26.8592V26.8582ZM128.813 25.7452C129.113 23.8222 130.243 22.5032 132.273 22.5032C134.086 22.5032 135.271 23.6982 135.584 25.7452H128.813Z" fill="#334155"/>
<path d="M64.8329 27.9569L59.2869 14.2189H54.5599V33.4519H57.6399V17.7769L63.2099 31.5699H66.4529L72.0259 17.6259V33.4519H75.1059V14.2189H70.3769L64.8319 27.9569H64.8329ZM81.7039 33.4519V20.2919H78.8439V33.4519H81.7039ZM93.8859 20.3189C93.2319 20.0579 92.5639 19.9489 91.6919 19.9489C90.0979 19.9489 88.7619 20.5249 87.9039 21.7749V20.2899H85.0839V33.4499H87.9319V26.2099C87.9319 23.9719 89.2259 22.6799 91.0379 22.6799C91.7329 22.6799 92.6049 22.8449 93.2039 23.1599L93.8859 20.3179V20.3189ZM82.2759 15.7439C82.2759 14.6039 81.3899 13.7109 80.2589 13.7109C79.1289 13.7109 78.2689 14.6039 78.2689 15.7439C78.2689 16.8839 79.1289 17.7499 80.2589 17.7499C81.3899 17.7499 82.2759 16.8839 82.2759 15.7439Z" fill="#334155"/>
</g>
<defs>
<clipPath id="clip0_1_275">
<rect width="138" height="48" fill="white" transform="translate(0.5)"/>
</clipPath>
</defs>
</svg>
