<svg width="10" height="12" viewBox="0 0 10 12" fill="none" xmlns="http://www.w3.org/2000/svg">
<path fill-rule="evenodd" clip-rule="evenodd" d="M3.10986 0.80826C2.80867 0.624058 2.45858 0.518262 2.09694 0.502159C1.7353 0.486057 1.37567 0.560251 1.05642 0.716828C0.737176 0.873405 0.47029 1.10649 0.284238 1.39121C0.0981847 1.67594 -5.4165e-05 2.00162 2.24048e-08 2.33352V9.66648C-5.4165e-05 9.99838 0.0981847 10.3241 0.284238 10.6088C0.47029 10.8935 0.737176 11.1266 1.05642 11.2832C1.37567 11.4397 1.7353 11.5139 2.09694 11.4978C2.45858 11.4817 2.80867 11.3759 3.10986 11.1917L9.10959 7.52526C9.3835 7.35784 9.60808 7.13103 9.7634 6.86496C9.91873 6.59888 10 6.30177 10 6C10 5.69822 9.91873 5.40112 9.7634 5.13504C9.60808 4.86897 9.3835 4.64216 9.10959 4.47474L3.10986 0.80826Z" fill="#2563EB"/>
</svg>
