<svg width="148" height="48" viewBox="0 0 148 48" fill="none" xmlns="http://www.w3.org/2000/svg">
<g clip-path="url(#clip0_1_288)">
<path fill-rule="evenodd" clip-rule="evenodd" d="M29.777 33.6769C29.777 36.1199 28.927 37.1189 26.612 37.1189H6.07001C3.75401 37.1189 2.90501 36.1189 2.90501 33.6769V28.9199C2.90501 26.6259 1.80001 25.3299 0.738006 24.7359C0.664944 24.6916 0.604535 24.6293 0.562609 24.5548C0.520683 24.4804 0.498657 24.3964 0.498657 24.3109C0.498657 24.2255 0.520683 24.1415 0.562609 24.0671C0.604535 23.9926 0.664944 23.9302 0.738006 23.8859C1.84301 23.1849 2.90501 21.7189 2.90501 19.7649V15.0899C2.90501 12.4559 3.62701 11.6899 5.94201 11.6899H26.74C29.056 11.6899 29.778 12.4559 29.778 15.0899V19.7629C29.778 21.7169 30.84 23.1829 31.944 23.8829C32.264 24.0959 32.264 24.5429 31.944 24.7329C30.882 25.3489 29.778 26.6449 29.778 28.9179V33.6759H29.777V33.6769ZM10.319 30.5549C11.997 32.0199 13.803 32.7639 16.289 32.7639C20.197 32.7639 22.746 30.8099 22.746 27.6439C22.746 24.2919 19.71 23.4369 17.241 22.7419C15.548 22.2649 14.121 21.8619 14.121 20.7819C14.121 20.0819 14.865 19.4019 16.118 19.4019C17.328 19.4019 18.328 19.6579 19.283 20.1459C19.602 20.2949 19.899 20.4009 20.175 20.4009C20.579 20.4009 20.898 20.2099 21.174 19.8279L21.556 19.2539C21.705 19.0419 21.769 18.8079 21.769 18.5539C21.769 18.1279 21.556 17.7039 21.238 17.4909C19.963 16.6839 18.242 16.0039 15.906 16.0039C12.592 16.0039 10.043 17.7459 10.043 20.8679C10.043 24.3579 13.145 25.2449 15.629 25.9529C17.286 26.4259 18.667 26.8199 18.667 27.8569C18.667 28.8549 17.733 29.3439 16.564 29.3439C15.1603 29.3573 13.7847 28.9505 12.614 28.1759C12.252 27.9419 11.912 27.7929 11.551 27.7929C11.231 27.7929 10.956 27.9419 10.701 28.2609L10.191 28.9189C10.001 29.1319 9.93701 29.4079 9.93701 29.6629C9.93701 29.9809 10.043 30.2999 10.319 30.5549ZM42.055 28.5999C41.779 28.5999 41.545 28.7069 41.333 28.9829L40.908 29.5779C40.738 29.7679 40.695 30.0019 40.695 30.2149C40.695 30.4909 40.801 30.7669 41.035 30.9799C42.437 32.1899 43.967 32.8279 46.07 32.8279C49.362 32.8279 51.529 31.1709 51.529 28.5149C51.529 25.6909 48.961 24.9699 46.875 24.3839C45.445 23.9819 44.243 23.6439 44.243 22.7379C44.243 22.1219 44.88 21.5679 45.921 21.5679C46.8444 21.565 47.755 21.7842 48.576 22.2069L48.64 22.2309C48.892 22.3289 49.125 22.4189 49.34 22.4189C49.66 22.4189 49.936 22.2689 50.17 21.9289L50.51 21.4419C50.6248 21.2572 50.6838 21.0434 50.68 20.8259C50.68 20.4649 50.51 20.1039 50.233 19.9339C49.15 19.2109 47.705 18.6589 45.73 18.6589C42.947 18.6589 40.78 20.1459 40.78 22.7789C40.78 25.7069 43.395 26.4539 45.492 27.0519C46.895 27.4519 48.066 27.7869 48.066 28.6639C48.066 29.5339 47.28 29.9389 46.282 29.9389C44.986 29.9389 43.902 29.5779 42.947 28.9389C42.671 28.7279 42.331 28.5989 42.055 28.5989V28.5999ZM62.341 30.8949C62.3441 30.7136 62.2918 30.5357 62.191 30.3849L61.916 29.9389C61.661 29.4929 61.364 29.3229 60.981 29.3229C60.791 29.3229 60.578 29.3649 60.301 29.4709C60.026 29.5779 59.707 29.6199 59.346 29.6199C58.22 29.6199 57.731 28.6429 57.731 27.1769V22.2499H60.981C61.597 22.2499 62.107 21.7399 62.107 21.1239V20.1039C62.107 19.4889 61.597 18.9789 60.981 18.9789H57.731V16.3449C57.731 15.7289 57.221 15.2189 56.606 15.2189H55.395C54.779 15.2189 54.269 15.7289 54.269 16.3449V27.3049C54.269 30.7679 55.416 32.7439 58.454 32.7439C59.792 32.7439 60.812 32.4679 61.831 31.8509C62.171 31.6809 62.341 31.2779 62.341 30.8959V30.8949ZM69.223 24.1399C66.483 24.1399 64.295 25.5419 64.295 28.5149C64.295 31.1279 66.058 32.6579 68.459 32.6789C70.285 32.6789 71.729 31.9779 72.452 30.9589V31.4039C72.452 32.0199 72.962 32.5299 73.578 32.5299H74.364C74.98 32.5299 75.49 32.0199 75.49 31.4039V24.3099C75.49 20.7419 74.109 18.7029 70.116 18.7029C68.735 18.7029 67.396 19.0629 66.228 19.5949C65.868 19.7649 65.591 20.1679 65.591 20.5509C65.5961 20.6733 65.6239 20.7937 65.673 20.9059C65.689 20.9509 65.706 20.9959 65.718 21.0389L65.888 21.3989C66.101 21.8249 66.462 22.0379 66.908 22.0379C67.042 22.0379 67.188 21.9979 67.328 21.9599L67.438 21.9299C68.076 21.7189 68.735 21.5699 69.754 21.5699C71.624 21.5699 72.261 22.6319 72.261 24.6079V25.0119C71.601 24.5219 70.413 24.1409 69.223 24.1409V24.1399ZM69.903 26.4549C70.88 26.4549 71.645 26.6669 72.261 27.1139H72.281V28.5139C71.857 29.0889 71.114 29.7259 69.669 29.7259C68.565 29.7259 67.736 29.1529 67.736 28.1329C67.736 26.9859 68.756 26.4549 69.903 26.4549ZM86.812 30.8949C86.8151 30.7136 86.7628 30.5357 86.662 30.3849L86.387 29.9389C86.132 29.4929 85.835 29.3229 85.452 29.3229C85.262 29.3229 85.049 29.3649 84.772 29.4709C84.496 29.5779 84.178 29.6199 83.817 29.6199C82.691 29.6199 82.202 28.6429 82.202 27.1769V22.2499H85.452C86.068 22.2499 86.578 21.7399 86.578 21.1239V20.1039C86.578 19.4889 86.068 18.9789 85.452 18.9789H82.202V16.3449C82.202 15.7289 81.692 15.2189 81.076 15.2189H79.866C79.25 15.2189 78.74 15.7289 78.74 16.3449V27.3049C78.74 30.7679 79.887 32.7439 82.924 32.7439C84.263 32.7439 85.282 32.4679 86.302 31.8509C86.642 31.6809 86.812 31.2779 86.812 30.8959V30.8949ZM93.694 24.1399C90.954 24.1399 88.766 25.5419 88.766 28.5149C88.766 31.1279 90.55 32.6579 92.929 32.6789C94.756 32.6789 96.201 31.9779 96.923 30.9589V31.4039C96.923 32.0199 97.433 32.5299 98.049 32.5299H98.835C99.451 32.5299 99.961 32.0199 99.961 31.4039V24.3099C99.961 20.7419 98.58 18.7029 94.586 18.7029C93.206 18.7029 91.866 19.0629 90.699 19.5949C90.338 19.7649 90.062 20.1679 90.062 20.5509C90.0671 20.6733 90.0949 20.7937 90.144 20.9059C90.16 20.9509 90.177 20.9959 90.189 21.0389L90.359 21.3989C90.572 21.8249 90.933 22.0379 91.379 22.0379C91.513 22.0379 91.659 21.9979 91.799 21.9599L91.909 21.9299C92.547 21.7189 93.206 21.5699 94.225 21.5699C96.095 21.5699 96.732 22.6319 96.732 24.6079V25.0119C96.072 24.5219 94.884 24.1409 93.694 24.1409V24.1399ZM94.374 26.4549C95.351 26.4549 96.116 26.6669 96.732 27.1139H96.752V28.5139C96.328 29.0889 95.585 29.7259 94.14 29.7259C93.036 29.7259 92.207 29.1529 92.207 28.1329C92.207 26.9859 93.227 26.4549 94.374 26.4549ZM111.176 18.7449C109.519 18.7449 107.926 19.4029 106.97 20.4649H106.907V20.0819C106.907 19.4659 106.397 18.9559 105.781 18.9559H104.57C103.954 18.9559 103.444 19.4659 103.444 20.0819V31.3619C103.444 31.9779 103.954 32.4879 104.57 32.4879H105.781C106.397 32.4879 106.907 31.9779 106.907 31.3619V23.4169C107.523 22.5039 108.521 21.9729 109.732 21.9729C111.176 21.9729 111.962 22.8859 111.962 24.3099V31.3199C111.962 31.9349 112.472 32.4449 113.088 32.4449H114.299C114.915 32.4449 115.425 31.9349 115.425 31.3189V24.4999C115.425 24.3239 115.418 24.1039 115.413 23.9059C115.408 23.7439 115.403 23.5959 115.403 23.5009C115.871 22.5879 116.89 21.9509 118.186 21.9509C119.822 21.9509 120.502 22.8639 120.502 24.5409V31.3609C120.502 31.9769 121.011 32.4869 121.627 32.4869H122.838C123.454 32.4869 123.964 31.9769 123.964 31.3609V23.6709C123.964 19.9539 122.116 18.7429 119.652 18.7429C117.57 18.7429 116.062 19.6349 115.106 20.9099C114.618 19.6779 113.237 18.7429 111.176 18.7429V18.7449ZM129.784 16.2799C130.761 16.2799 131.76 15.4939 131.76 14.1129C131.76 12.9029 130.761 12.1169 129.784 12.1169C128.616 12.1169 127.618 12.9029 127.618 14.1129C127.618 15.4929 128.616 16.2799 129.784 16.2799ZM131.441 20.1039C131.441 19.4879 130.931 18.9779 130.315 18.9779V18.9559H129.105C128.489 18.9559 127.979 19.4659 127.979 20.0819V31.3619C127.979 31.9779 128.489 32.4879 129.105 32.4879H130.315C130.931 32.4879 131.441 31.9779 131.441 31.3619V20.1039ZM142.381 21.8879C143.252 21.8879 143.953 22.0369 144.76 22.4179C144.903 22.4979 145.058 22.5299 145.198 22.5579L145.333 22.5879C145.737 22.5879 146.119 22.3339 146.353 21.9519L146.799 21.1659C146.905 21.0159 146.927 20.8459 146.927 20.6759C146.927 20.2949 146.735 19.8489 146.396 19.6789C145.079 18.9559 143.762 18.6589 141.956 18.6589C137.835 18.6589 134.967 21.8029 134.967 25.7329C134.967 29.9809 137.92 32.8059 142.381 32.8059C144.059 32.8059 145.482 32.5089 147.097 31.2129C147.351 31.0219 147.5 30.6179 147.5 30.2569C147.5 30.0239 147.436 29.7899 147.288 29.6409L146.778 29.0039C146.665 28.8645 146.523 28.7521 146.361 28.6749C146.199 28.5978 146.022 28.5578 145.843 28.5579C145.61 28.5579 145.355 28.6429 145.121 28.7919C144.335 29.3019 143.57 29.5779 142.508 29.5779C140.469 29.5779 138.621 28.0909 138.621 25.7119C138.621 23.3539 140.448 21.8879 142.381 21.8879Z" fill="#334155"/>
</g>
<defs>
<clipPath id="clip0_1_288">
<rect width="147" height="48" fill="white" transform="translate(0.5)"/>
</clipPath>
</defs>
</svg>
