<svg width="159" height="48" viewBox="0 0 159 48" fill="none" xmlns="http://www.w3.org/2000/svg">
<g clip-path="url(#clip0_1_264)">
<path d="M55.9231 18.1781V15.6871H66.8801V18.1781H62.8041V32.0531H59.9701V18.1781H55.9231ZM74.0211 22.7551C73.5821 22.6771 73.137 22.6383 72.6911 22.6391C70.8711 22.6391 69.8011 23.8271 69.8011 26.2311V32.0241H67.1111V20.5541H69.7421V22.1761H69.8001C70.3201 21.1911 71.4771 20.1761 73.0101 20.1761C73.4431 20.1761 73.7321 20.2061 74.0211 20.2351V22.7551ZM86.8871 32.0241H84.2851V30.5761H84.2271C83.4471 31.5611 82.2031 32.4591 80.2951 32.4591C77.7221 32.4591 74.8021 30.4021 74.8021 26.2891C74.8021 22.6391 77.3751 20.2061 80.4971 20.2061C82.4051 20.2061 83.5621 21.2191 84.2571 22.1171H84.3141V20.5531H86.9161V32.0241H86.8861H86.8871ZM80.9891 30.0841C82.7521 30.0841 84.4001 28.5481 84.4001 26.3461C84.4001 24.0291 82.8971 22.4941 81.0181 22.4941C78.6481 22.4941 77.5191 24.4061 77.5191 26.2891C77.5191 28.2001 78.6191 30.0831 80.9891 30.0831V30.0841ZM90.0101 20.5531H92.6701V22.0021H92.7271C93.6231 20.6981 94.9531 20.1771 96.2251 20.1771C98.5961 20.1771 100.678 21.7411 100.678 25.4201V32.0241H97.9881V25.5641C97.9881 23.5941 97.0641 22.5521 95.5311 22.5521C93.8541 22.5521 92.6981 23.7401 92.6981 25.9701V32.0531H90.0101V20.5531H90.0111H90.0101ZM108.802 23.5081C108.686 22.6681 108.05 22.1181 107.269 22.1181C106.344 22.1181 105.824 22.6971 105.824 23.3341C105.824 24.0291 106.171 24.5221 108.165 25.1881C110.623 25.9701 111.49 27.2451 111.49 28.8671C111.49 30.9811 109.9 32.4591 107.269 32.4591C104.523 32.4591 103.164 30.9521 102.961 28.8091H105.448C105.563 29.7651 106.142 30.4891 107.327 30.4891C108.339 30.4891 108.917 29.8521 108.917 29.0691C108.917 28.2011 108.426 27.6501 106.518 27.0131C104.378 26.3181 103.279 25.2461 103.279 23.4501C103.279 21.5671 104.754 20.1771 107.182 20.1771C109.64 20.1771 110.941 21.6251 111.23 23.5071H108.802V23.5081ZM113.832 15.2811H116.81V18.0041H113.832V15.2811ZM113.977 20.5531H116.665V32.0531H113.977V20.5531ZM124.963 23.5081C124.847 22.6681 124.211 22.1181 123.43 22.1181C122.505 22.1181 121.985 22.6971 121.985 23.3341C121.985 24.0291 122.332 24.5221 124.327 25.1881C126.784 25.9701 127.651 27.2451 127.651 28.8671C127.651 30.9811 126.061 32.4591 123.43 32.4591C120.684 32.4591 119.325 30.9521 119.123 28.8091H121.609C121.725 29.7651 122.303 30.4891 123.488 30.4891C124.5 30.4891 125.078 29.8521 125.078 29.0691C125.078 28.2011 124.587 27.6501 122.679 27.0131C120.539 26.3181 119.441 25.2461 119.441 23.4501C119.441 21.5671 120.915 20.1771 123.344 20.1771C125.801 20.1771 127.102 21.6251 127.391 23.5071H124.963V23.5081ZM128.808 20.5531H130.253V16.8751H132.942V20.5531H135.804V22.8131H132.913V27.9401C132.913 29.5041 133.405 29.9391 134.503 29.9391C134.966 29.9391 135.486 29.8521 135.891 29.7361V31.9081C135.284 32.0821 134.532 32.1691 133.867 32.1691C131.005 32.1691 130.253 30.4311 130.253 28.0851V22.8131H128.808V20.5531ZM143.119 20.1771C146.704 20.1771 149.248 22.8131 149.248 26.2891C149.248 29.6781 146.675 32.4591 143.119 32.4591C139.621 32.4591 136.99 29.7651 136.99 26.2891C136.99 22.7261 139.65 20.1771 143.119 20.1771ZM143.119 30.0541C145.143 30.0541 146.53 28.4321 146.53 26.2891C146.53 24.2611 145.229 22.5521 143.119 22.5521C141.066 22.5521 139.707 24.1451 139.707 26.2891C139.707 28.4901 141.269 30.0541 143.119 30.0541ZM157.171 22.6391C155.349 22.6391 154.28 23.8271 154.28 26.2311V32.0241H151.591V20.5541H154.222V22.1761H154.28C154.8 21.1911 155.956 20.1761 157.489 20.1761C157.922 20.1761 158.211 20.2061 158.501 20.2351V22.7551C158.062 22.6771 157.617 22.6382 157.171 22.6391ZM21.3161 37.7311C20.9478 37.7305 20.5948 37.5839 20.3345 37.3232C20.0743 37.0626 19.9281 36.7094 19.9281 36.3411V11.3701C19.9286 11.0958 20.0102 10.8278 20.1627 10.5999C20.3153 10.372 20.5319 10.1943 20.7852 10.0893C21.0386 9.98425 21.3173 9.95658 21.5864 10.0098C21.8554 10.0629 22.1027 10.1946 22.2971 10.3881C22.5571 10.6481 22.7031 11.0021 22.7031 11.3701V36.3401C22.7031 37.0931 22.0671 37.7301 21.3161 37.7301V37.7311ZM15.5331 25.2471H8.88309C8.51496 25.2463 8.16218 25.0995 7.90215 24.8389C7.64213 24.5783 7.49609 24.2252 7.49609 23.8571C7.49609 23.0741 8.10309 22.4661 8.88409 22.4661H15.5341C15.9027 22.4661 16.2563 22.6125 16.517 22.8732C16.7776 23.1339 16.9241 23.4874 16.9241 23.8561C16.9241 24.2247 16.7776 24.5783 16.517 24.8389C16.2563 25.0996 15.9027 25.2461 15.5341 25.2461V25.2471H15.5331ZM33.7761 25.2471H27.0981C26.7298 25.2465 26.3768 25.0999 26.1165 24.8392C25.8563 24.5786 25.7101 24.2254 25.7101 23.8571C25.7101 23.0741 26.3171 22.4661 27.0981 22.4661H33.7481C34.1162 22.4669 34.469 22.6137 34.729 22.8742C34.9891 23.1348 35.1351 23.4879 35.1351 23.8561C35.1351 24.6381 34.5281 25.2461 33.7761 25.2461V25.2471Z" fill="#334155"/>
<path d="M21.316 44.712C9.838 44.712 0.5 35.356 0.5 23.856C0.5 12.356 9.838 3 21.316 3C32.794 3 42.132 12.356 42.132 23.856C42.132 35.356 32.794 44.712 21.316 44.712ZM21.316 5.781C11.371 5.781 3.276 13.891 3.276 23.856C3.276 33.821 11.371 41.931 21.316 41.931C31.262 41.931 39.356 33.821 39.356 23.856C39.356 13.891 31.263 5.781 21.317 5.781H21.316Z" fill="#334155"/>
</g>
<defs>
<clipPath id="clip0_1_264">
<rect width="158" height="48" fill="white" transform="translate(0.5)"/>
</clipPath>
</defs>
</svg>
