<svg width="106" height="48" viewBox="0 0 106 48" fill="none" xmlns="http://www.w3.org/2000/svg">
<g clip-path="url(#clip0_1_268)">
<path fill-rule="evenodd" clip-rule="evenodd" d="M18.5 4L0.5 10V29.5L6.5 31.5V37L24.5 43V11.5L18.5 13.5V4ZM8.5 32.167L18.5 35.5V15.608L22.5 14.275V40.225L8.5 35.56V32.167Z" fill="#334155"/>
<path d="M43.3999 20.4501V31.0001H47.8459V20.4501H51.3759V17.0581H39.8899V20.4511H43.3999V20.4501ZM53.6049 25.2481C53.6049 29.2261 55.9049 31.2541 59.9809 31.2541C63.8809 31.2541 66.3769 29.4011 66.3769 25.2091V17.0591H61.9299V25.0531C61.9299 26.8861 61.5399 27.7831 59.9799 27.7831C58.3999 27.7831 58.0099 26.8861 58.0099 25.0731V17.0581H53.6039V25.2481H53.6049Z" fill="#334155"/>
<path fill-rule="evenodd" clip-rule="evenodd" d="M69.4651 31.0001V17.0581H75.0231C79.0401 17.0581 80.7561 18.8521 80.7561 21.8351V21.9131C80.7561 24.8191 78.8261 26.4571 75.2181 26.4571H73.8721V31.0001H69.4651ZM74.7881 23.4931H73.8721V20.3531H74.8081C75.9581 20.3531 76.5631 20.7831 76.5631 21.8551V21.9331C76.5631 22.9661 75.9581 23.4931 74.7881 23.4931Z" fill="#334155"/>
<path d="M83.063 31.0001V17.0581H87.49V27.5881H92.56V31.0001H83.063ZM95.062 17.0581V31.0001H105.28V27.6071H99.469V25.5211H103.837V22.4211H99.469V20.4511H104.968V17.0581H95.062Z" fill="#334155"/>
</g>
<defs>
<clipPath id="clip0_1_268">
<rect width="105" height="48" fill="white" transform="translate(0.5)"/>
</clipPath>
</defs>
</svg>
